<svg width="52" height="52" viewBox="0 0 52 52" fill="none" xmlns="http://www.w3.org/2000/svg">
<path d="M48.75 40.625H47.125V7.3125C47.125 6.66603 46.8682 6.04606 46.4111 5.58894C45.954 5.13182 45.334 4.875 44.6875 4.875H43.0625V3.25H44.6875C45.7649 3.25 46.7983 3.67802 47.5601 4.43989C48.322 5.20175 48.75 6.23506 48.75 7.3125V40.625Z" fill="#59C8E6"/>
<path d="M44.6875 48.75H11.375V47.125H44.6875C45.334 47.125 45.954 46.8682 46.4111 46.4111C46.8682 45.9539 47.125 45.334 47.125 44.6875V43.0625H48.75V44.6875C48.75 45.7649 48.322 46.7982 47.5601 47.5601C46.7983 48.322 45.7649 48.75 44.6875 48.75Z" fill="#59C8E6"/>
<path d="M8.9375 48.75H7.3125C6.23506 48.75 5.20174 48.322 4.43988 47.5601C3.67801 46.7982 3.25 45.7649 3.25 44.6875V11.375H4.875V44.6875C4.875 45.334 5.13181 45.9539 5.58893 46.4111C6.04605 46.8682 6.66603 47.125 7.3125 47.125H8.9375V48.75Z" fill="#59C8E6"/>
<path d="M4.875 8.9375H3.25V7.3125C3.25 6.23506 3.67801 5.20175 4.43988 4.43989C5.20174 3.67802 6.23506 3.25 7.3125 3.25H40.625V4.875H7.3125C6.66603 4.875 6.04605 5.13182 5.58893 5.58894C5.13181 6.04606 4.875 6.66603 4.875 7.3125V8.9375Z" fill="#59C8E6"/>
<path d="M37.9526 7.88934L36.7988 6.73561L39.4801 4.06248L36.7988 1.38936L37.9526 0.235596L41.2026 3.48561C41.2787 3.56114 41.3392 3.65099 41.3804 3.75C41.4217 3.84901 41.4429 3.95522 41.4429 4.06248C41.4429 4.16974 41.4217 4.27594 41.3804 4.37495C41.3392 4.47396 41.2787 4.56381 41.2026 4.63934L37.9526 7.88934Z" fill="#59C8E6"/>
<path d="M14.0489 51.7643L10.7989 48.5143C10.7228 48.4388 10.6623 48.3489 10.6211 48.2499C10.5798 48.1509 10.5586 48.0447 10.5586 47.9375C10.5586 47.8302 10.5798 47.724 10.6211 47.625C10.6623 47.526 10.7228 47.4361 10.7989 47.3606L14.0489 44.1106L15.2027 45.2643L12.5214 47.9375L15.2027 50.6106L14.0489 51.7643Z" fill="#59C8E6"/>
<path d="M47.9382 41.4375C47.8313 41.4381 47.7253 41.4176 47.6263 41.3772C47.5273 41.3367 47.4372 41.2771 47.3613 41.2018L44.1113 37.9518L45.2651 36.7981L47.9382 39.4793L50.6113 36.7981L51.7651 37.9518L48.5151 41.2018C48.4392 41.2771 48.3491 41.3367 48.2501 41.3772C48.1511 41.4176 48.0451 41.4381 47.9382 41.4375Z" fill="#59C8E6"/>
<path d="M6.73633 15.2017L4.06321 12.5205L1.39009 15.2017L0.236328 14.048L3.48633 10.798C3.56186 10.7218 3.65172 10.6614 3.75074 10.6201C3.84975 10.5789 3.95595 10.5576 4.06321 10.5576C4.17047 10.5576 4.27667 10.5789 4.37568 10.6201C4.47469 10.6614 4.56456 10.7218 4.64009 10.798L7.89009 14.048L6.73633 15.2017Z" fill="#59C8E6"/>
<path d="M52 13H50.375V34.9375H52V13Z" fill="#59C8E6"/>
<path d="M1.625 17.0625H0V39H1.625V17.0625Z" fill="#59C8E6"/>
<path d="M39 50.375H17.0625V52H39V50.375Z" fill="#59C8E6"/>
<path d="M34.9375 0H13V1.625H34.9375V0Z" fill="#59C8E6"/>
<path d="M48.75 50.375H47.125V52H48.75V50.375Z" fill="#59C8E6"/>
<path d="M45.5 50.375H43.875V52H45.5V50.375Z" fill="#59C8E6"/>
<path d="M42.25 50.375H40.625V52H42.25V50.375Z" fill="#59C8E6"/>
<path d="M11.375 0H9.75V1.625H11.375V0Z" fill="#59C8E6"/>
<path d="M8.125 0H6.5V1.625H8.125V0Z" fill="#59C8E6"/>
<path d="M4.875 0H3.25V1.625H4.875V0Z" fill="#59C8E6"/>
<path d="M1.625 47.125H0V48.75H1.625V47.125Z" fill="#59C8E6"/>
<path d="M1.625 43.875H0V45.5H1.625V43.875Z" fill="#59C8E6"/>
<path d="M1.625 40.625H0V42.25H1.625V40.625Z" fill="#59C8E6"/>
<path d="M52 9.75H50.375V11.375H52V9.75Z" fill="#59C8E6"/>
<path d="M52 6.5H50.375V8.125H52V6.5Z" fill="#59C8E6"/>
<path d="M52 3.25H50.375V4.875H52V3.25Z" fill="#59C8E6"/>
<path d="M28.9495 42.7862C28.8122 42.7874 28.6769 42.7537 28.5561 42.6883C28.4353 42.623 28.3331 42.5281 28.2589 42.4125L26.0733 39H25.927L23.7414 42.4125C23.6553 42.5445 23.5326 42.6485 23.3883 42.712C23.244 42.7755 23.0844 42.7956 22.9289 42.77C21.7737 42.5612 20.6435 42.2316 19.5571 41.7869C19.4087 41.7259 19.2817 41.6224 19.192 41.4894C19.1024 41.3564 19.0541 41.1998 19.0533 41.0394V36.9769L18.9395 36.9037L15.2508 38.5856C15.1041 38.6527 14.9408 38.6746 14.7817 38.6486C14.6225 38.6225 14.4747 38.5497 14.357 38.4394C13.4977 37.6392 12.7244 36.7515 12.0495 35.7906C11.9587 35.6562 11.9102 35.4978 11.9102 35.3356C11.9102 35.1734 11.9587 35.015 12.0495 34.8806L14.2433 31.4681C14.2195 31.4271 14.2004 31.3835 14.1864 31.3381L10.1727 30.7694C10.0123 30.7466 9.86246 30.6764 9.7423 30.5678C9.62214 30.4592 9.53717 30.3172 9.4983 30.16C9.21524 29.0207 9.04917 27.8555 9.00267 26.6825C8.9959 26.5216 9.03708 26.3624 9.12098 26.2249C9.20489 26.0875 9.32773 25.9781 9.47392 25.9106L13.1545 24.2287V24.0906L10.0914 21.4337C9.96778 21.3286 9.87849 21.1888 9.83505 21.0324C9.7916 20.8759 9.79599 20.7101 9.84767 20.5562C10.2273 19.4443 10.7201 18.3744 11.3183 17.3631C11.4001 17.2252 11.5209 17.1145 11.6655 17.0451C11.8101 16.9757 11.972 16.9507 12.1308 16.9731L16.1445 17.55L16.2339 17.4525L15.0883 13.5525C15.0429 13.3985 15.0441 13.2345 15.0919 13.0812C15.1396 12.928 15.2316 12.7922 15.3564 12.6912C16.2746 11.9579 17.2656 11.3209 18.3139 10.79C18.4585 10.7169 18.6216 10.6887 18.7823 10.7089C18.943 10.7292 19.0939 10.7971 19.2158 10.9037L22.287 13.5606H22.417L23.5627 9.64436C23.6081 9.49086 23.698 9.35423 23.8208 9.2516C23.9437 9.14896 24.0942 9.08491 24.2533 9.06749C25.4201 8.9456 26.5965 8.9456 27.7633 9.06749C27.9224 9.08491 28.0729 9.14896 28.1958 9.2516C28.3186 9.35423 28.4084 9.49086 28.4539 9.64436L29.5995 13.5606H29.7295L32.8008 10.9037C32.9227 10.7971 33.0736 10.7292 33.2343 10.7089C33.395 10.6887 33.5581 10.7169 33.7027 10.79C34.751 11.3209 35.742 11.9579 36.6602 12.6912C36.7849 12.7922 36.877 12.928 36.9247 13.0812C36.9724 13.2345 36.9737 13.3985 36.9283 13.5525L35.7827 17.4525L35.872 17.55L39.8858 16.9731C40.0446 16.9507 40.2065 16.9757 40.3511 17.0451C40.4957 17.1145 40.6165 17.2252 40.6983 17.3631C41.2965 18.3744 41.7893 19.4443 42.1689 20.5562C42.2206 20.7101 42.225 20.8759 42.1815 21.0324C42.1381 21.1888 42.0488 21.3286 41.9252 21.4337L38.862 24.0906V24.2287L42.5427 25.9106C42.6889 25.9781 42.8117 26.0875 42.8956 26.2249C42.9795 26.3624 43.0207 26.5216 43.0139 26.6825C42.9674 27.8555 42.8014 29.0207 42.5183 30.16C42.4794 30.3172 42.3944 30.4592 42.2743 30.5678C42.1541 30.6764 42.0043 30.7466 41.8439 30.7694L37.8302 31.3381C37.8162 31.3835 37.7971 31.4271 37.7733 31.4681L39.967 34.8806C40.0579 35.015 40.1064 35.1734 40.1064 35.3356C40.1064 35.4978 40.0579 35.6562 39.967 35.7906C39.2922 36.7515 38.5189 37.6392 37.6596 38.4394C37.5419 38.5497 37.3941 38.6225 37.2349 38.6486C37.0758 38.6746 36.9125 38.6527 36.7658 38.5856L33.0771 36.9037L32.9633 36.9769V41.0394C32.9625 41.1998 32.9142 41.3564 32.8246 41.4894C32.7349 41.6224 32.6079 41.7259 32.4595 41.7869C31.3731 42.2316 30.2429 42.5612 29.0877 42.77L28.9495 42.7862ZM26.512 37.375C26.6465 37.3734 26.7792 37.4053 26.8984 37.4677C27.0175 37.5301 27.1193 37.6211 27.1945 37.7325L29.3395 41.0719C30.023 40.92 30.696 40.7246 31.3545 40.4869V36.5137C31.354 36.3706 31.3912 36.2298 31.4626 36.1057C31.5339 35.9815 31.6368 35.8785 31.7608 35.8069C32.0289 35.6525 32.297 35.4819 32.5733 35.3031C32.6895 35.2191 32.8259 35.1673 32.9686 35.153C33.1113 35.1387 33.2552 35.1625 33.3858 35.2219L36.977 36.8469C37.4743 36.3521 37.9359 35.8226 38.3583 35.2625L36.2133 31.9312C36.1357 31.8113 36.0911 31.6731 36.084 31.5304C36.0768 31.3878 36.1074 31.2458 36.1727 31.1187C36.3218 30.8423 36.4547 30.5574 36.5708 30.2656C36.6239 30.1325 36.7112 30.0158 36.8239 29.9273C36.9366 29.8389 37.0708 29.7818 37.2127 29.7619L41.1208 29.2094C41.2671 28.521 41.3648 27.8233 41.4133 27.1212L37.8302 25.4962C37.701 25.4373 37.5894 25.3455 37.5068 25.23C37.4241 25.1146 37.3731 24.9794 37.3589 24.8381C37.3589 24.5212 37.2695 24.2044 37.2127 23.8956C37.1882 23.7572 37.2 23.6149 37.247 23.4824C37.294 23.35 37.3746 23.232 37.4808 23.14L40.4789 20.5481C40.2279 19.8934 39.9348 19.2556 39.6014 18.6387L35.6852 19.1994C35.5459 19.2195 35.4038 19.2031 35.2728 19.1519C35.1417 19.1006 35.0263 19.0162 34.9377 18.9069C34.7345 18.655 34.5314 18.4194 34.312 18.1919C34.2104 18.086 34.1394 17.9545 34.1065 17.8114C34.0735 17.6683 34.08 17.5191 34.1252 17.3794L35.2464 13.5769C34.6827 13.1601 34.0909 12.7828 33.4752 12.4475L30.4852 15.0394C30.376 15.1355 30.243 15.2005 30.1 15.2277C29.9571 15.2548 29.8095 15.2431 29.6727 15.1937C29.372 15.0962 29.0714 15.0069 28.7627 14.9337C28.6246 14.8997 28.498 14.8299 28.3953 14.7316C28.2926 14.6332 28.2176 14.5096 28.1777 14.3731L27.0645 10.5544C26.3664 10.5137 25.6665 10.5137 24.9683 10.5544L23.8552 14.3731C23.8152 14.5096 23.7402 14.6332 23.6375 14.7316C23.5349 14.8299 23.4082 14.8997 23.2702 14.9337C22.9614 15.0069 22.6608 15.0962 22.3602 15.1937C22.2233 15.2431 22.0757 15.2548 21.9328 15.2277C21.7899 15.2005 21.6569 15.1355 21.5477 15.0394L18.5577 12.4475C17.942 12.7828 17.3502 13.1601 16.7864 13.5769L17.9077 17.3794C17.9528 17.5191 17.9593 17.6683 17.9264 17.8114C17.8935 17.9545 17.8224 18.086 17.7208 18.1919C17.5014 18.4194 17.2983 18.655 17.0952 18.9069C17.0066 19.0162 16.8911 19.1006 16.7601 19.1519C16.629 19.2031 16.4869 19.2195 16.3477 19.1994L12.4314 18.6387C12.098 19.2556 11.8049 19.8934 11.5539 20.5481L14.552 23.14C14.6583 23.232 14.7388 23.35 14.7858 23.4824C14.8328 23.6149 14.8446 23.7572 14.8202 23.8956C14.7633 24.2044 14.7064 24.5212 14.6739 24.8381C14.6597 24.9794 14.6088 25.1146 14.5261 25.23C14.4434 25.3455 14.3319 25.4373 14.2027 25.4962L10.6196 27.1212C10.668 27.8233 10.7657 28.521 10.912 29.2094L14.8202 29.7619C14.9621 29.7818 15.0962 29.8389 15.2089 29.9273C15.3217 30.0158 15.409 30.1325 15.462 30.2656C15.5782 30.5574 15.7111 30.8423 15.8602 31.1187C15.9254 31.2458 15.956 31.3878 15.9489 31.5304C15.9417 31.6731 15.8971 31.8113 15.8195 31.9312L13.6745 35.2625C14.0969 35.8226 14.5585 36.3521 15.0558 36.8469L18.647 35.2219C18.7776 35.1625 18.9215 35.1387 19.0642 35.153C19.2069 35.1673 19.3433 35.2191 19.4595 35.3031C19.7114 35.4819 19.9795 35.6444 20.272 35.8069C20.3948 35.8778 20.497 35.9795 20.5682 36.1021C20.6395 36.2247 20.6774 36.3638 20.6783 36.5056V40.4787C21.3368 40.7165 22.0098 40.9119 22.6933 41.0637L24.8383 37.7244C24.9153 37.604 25.0227 37.506 25.1497 37.4404C25.2766 37.3748 25.4187 37.3438 25.5614 37.3506H25.7646C25.9377 37.3628 26.1114 37.3628 26.2846 37.3506H26.5283L26.512 37.375Z" fill="#59C8E6"/>
<path d="M26 34.9375C24.2323 34.9375 22.5044 34.4133 21.0346 33.4313C19.5648 32.4492 18.4193 31.0533 17.7428 29.4202C17.0664 27.7871 16.8894 25.9901 17.2342 24.2564C17.5791 22.5227 18.4303 20.9302 19.6802 19.6802C20.9302 18.4303 22.5227 17.5791 24.2564 17.2342C25.9901 16.8894 27.7871 17.0664 29.4202 17.7428C31.0533 18.4193 32.4492 19.5648 33.4313 21.0346C34.4133 22.5044 34.9375 24.2323 34.9375 26C34.9375 28.3704 33.9959 30.6437 32.3198 32.3198C30.6437 33.9959 28.3704 34.9375 26 34.9375ZM26 18.6875C24.5537 18.6875 23.1399 19.1164 21.9374 19.9199C20.7349 20.7234 19.7976 21.8654 19.2441 23.2016C18.6907 24.5378 18.5459 26.0081 18.828 27.4266C19.1102 28.8451 19.8066 30.148 20.8293 31.1707C21.8519 32.1934 23.1549 32.8898 24.5734 33.172C25.9919 33.4541 27.4622 33.3093 28.7984 32.7559C30.1346 32.2024 31.2766 31.2651 32.0801 30.0626C32.8836 28.8601 33.3125 27.4463 33.3125 26C33.3125 24.0606 32.5421 22.2007 31.1707 20.8293C29.7994 19.4579 27.9394 18.6875 26 18.6875Z" fill="#59C8E6"/>
<path d="M26 27.625C26.8975 27.625 27.625 26.8975 27.625 26C27.625 25.1025 26.8975 24.375 26 24.375C25.1025 24.375 24.375 25.1025 24.375 26C24.375 26.8975 25.1025 27.625 26 27.625Z" fill="#59C8E6"/>
<path d="M26 28.4375C25.5179 28.4375 25.0466 28.2945 24.6458 28.0267C24.2449 27.7589 23.9325 27.3782 23.748 26.9328C23.5636 26.4874 23.5153 25.9973 23.6093 25.5245C23.7034 25.0516 23.9355 24.6173 24.2764 24.2764C24.6173 23.9355 25.0516 23.7034 25.5245 23.6093C25.9973 23.5153 26.4874 23.5636 26.9328 23.748C27.3782 23.9325 27.7589 24.2449 28.0267 24.6458C28.2945 25.0466 28.4375 25.5179 28.4375 26C28.4375 26.6465 28.1807 27.2664 27.7236 27.7236C27.2665 28.1807 26.6465 28.4375 26 28.4375ZM26 25.1875C25.8393 25.1875 25.6822 25.2351 25.5486 25.3244C25.415 25.4137 25.3108 25.5406 25.2494 25.6891C25.1879 25.8375 25.1718 26.0009 25.2031 26.1585C25.2345 26.3161 25.3118 26.4609 25.4255 26.5745C25.5391 26.6881 25.6839 26.7655 25.8415 26.7969C25.9991 26.8282 26.1625 26.8122 26.3109 26.7507C26.4594 26.6892 26.5863 26.585 26.6756 26.4514C26.7648 26.3178 26.8125 26.1607 26.8125 26C26.8125 25.7845 26.7269 25.5779 26.5745 25.4255C26.4222 25.2731 26.2155 25.1875 26 25.1875Z" fill="#59C8E6"/>
<path d="M26 29.25C25.3572 29.25 24.7289 29.0594 24.1944 28.7023C23.6599 28.3451 23.2434 27.8376 22.9974 27.2437C22.7514 26.6499 22.687 25.9964 22.8124 25.3659C22.9378 24.7355 23.2474 24.1564 23.7019 23.7019C24.1564 23.2474 24.7355 22.9379 25.366 22.8125C25.9964 22.6871 26.6499 22.7514 27.2437 22.9974C27.8376 23.2434 28.3452 23.6599 28.7023 24.1944C29.0594 24.7288 29.25 25.3572 29.25 26C29.25 26.8619 28.9076 27.6886 28.2981 28.2981C27.6886 28.9076 26.862 29.25 26 29.25ZM26 24.375C25.6786 24.375 25.3644 24.4703 25.0972 24.6489C24.83 24.8274 24.6217 25.0812 24.4987 25.3781C24.3757 25.6751 24.3435 26.0018 24.4062 26.317C24.4689 26.6322 24.6237 26.9218 24.851 27.149C25.0782 27.3763 25.3678 27.5311 25.683 27.5938C25.9982 27.6565 26.3249 27.6243 26.6219 27.5013C26.9188 27.3783 27.1726 27.17 27.3511 26.9028C27.5297 26.6356 27.625 26.3214 27.625 26C27.625 25.569 27.4538 25.1557 27.149 24.8509C26.8443 24.5462 26.431 24.375 26 24.375Z" fill="#59C8E6"/>
</svg>
