<svg width="99" height="99" viewBox="0 0 99 99" fill="none" xmlns="http://www.w3.org/2000/svg">
<g clip-path="url(#clip0_320_2164)">
<path d="M82.063 45.4286H94.2763V53.5708H82.063V45.4286ZM4.71191 45.4286H16.9252V53.5708H4.71191V45.4286ZM53.5652 4.71753V16.9309H45.423V4.71753H53.5652ZM20.6707 14.8953L29.3421 23.6075L23.5611 29.3477L14.8897 20.717L20.6707 14.8953ZM69.6461 23.5668L78.2768 14.8953L84.0985 20.717L75.4271 29.3477L69.6461 23.5668ZM49.4941 25.0731C55.9725 25.0731 62.1855 27.6466 66.7664 32.2275C71.3473 36.8084 73.9208 43.0214 73.9208 49.4997C73.9208 58.5376 68.9947 66.4355 61.7074 70.6695V77.9975C61.7074 79.0772 61.2785 80.1127 60.515 80.8762C59.7516 81.6397 58.7161 82.0686 57.6363 82.0686H41.3519C40.2722 82.0686 39.2367 81.6397 38.4732 80.8762C37.7097 80.1127 37.2808 79.0772 37.2808 77.9975V70.6695C29.9935 66.4355 25.0675 58.5376 25.0675 49.4997C25.0675 43.0214 27.641 36.8084 32.2219 32.2275C36.8027 27.6466 43.0158 25.0731 49.4941 25.0731ZM57.6363 86.1397V90.2108C57.6363 91.2905 57.2074 92.326 56.4439 93.0895C55.6804 93.853 54.6449 94.2819 53.5652 94.2819H45.423C44.3433 94.2819 43.3078 93.853 42.5443 93.0895C41.7808 92.326 41.3519 91.2905 41.3519 90.2108V86.1397H57.6363ZM45.423 73.9264H53.5652V65.2549C60.6082 63.4636 65.7785 57.072 65.7785 49.4997C65.7785 45.1808 64.0629 41.0388 61.0089 37.9849C57.955 34.931 53.813 33.2153 49.4941 33.2153C45.1752 33.2153 41.0332 34.931 37.9793 37.9849C34.9254 41.0388 33.2097 45.1808 33.2097 49.4997C33.2097 57.072 38.38 63.4636 45.423 65.2549V73.9264Z" fill="white"/>
</g>
<defs>
<clipPath id="clip0_320_2164">
<rect width="97.7066" height="97.7066" fill="white" transform="translate(0.640625 0.646545)"/>
</clipPath>
</defs>
</svg>
