<svg width="8" height="14" viewBox="0 0 8 14" fill="none" xmlns="http://www.w3.org/2000/svg">
<path d="M3.64 13.61V11.776L3.962 12.084C3.28067 12.0653 2.63667 11.9627 2.03 11.776C1.43267 11.58 0.914667 11.3093 0.476 10.964L1.022 9.55C1.46067 9.87667 1.94133 10.1287 2.464 10.306C2.98667 10.4833 3.56067 10.572 4.186 10.572C4.886 10.572 5.39467 10.4507 5.712 10.208C6.03867 9.956 6.202 9.64333 6.202 9.27C6.202 8.962 6.08533 8.71467 5.852 8.528C5.628 8.34133 5.24067 8.18733 4.69 8.066L3.206 7.744C2.34733 7.55733 1.708 7.24467 1.288 6.806C0.877333 6.358 0.672 5.77467 0.672 5.056C0.672 4.50533 0.807333 4.01533 1.078 3.586C1.34867 3.14733 1.72667 2.79733 2.212 2.536C2.69733 2.27467 3.26667 2.12067 3.92 2.074L3.64 2.284V0.519999H5.04V2.284L4.746 2.06C5.278 2.088 5.80067 2.19533 6.314 2.382C6.83667 2.56867 7.27067 2.83933 7.616 3.194L7.084 4.538C6.72933 4.21133 6.32333 3.96867 5.866 3.81C5.40867 3.642 4.90933 3.558 4.368 3.558C3.752 3.558 3.26667 3.69333 2.912 3.964C2.55733 4.22533 2.38 4.57067 2.38 5C2.38 5.31733 2.48733 5.57867 2.702 5.784C2.926 5.98 3.29467 6.134 3.808 6.246L5.292 6.568C6.188 6.75467 6.85067 7.06267 7.28 7.492C7.71867 7.912 7.938 8.46733 7.938 9.158C7.938 9.69933 7.80267 10.18 7.532 10.6C7.26133 11.0107 6.888 11.342 6.412 11.594C5.94533 11.8367 5.39933 11.9907 4.774 12.056L5.04 11.762V13.61H3.64Z" fill="#343941"/>
</svg>
