<svg width="24" height="25" viewBox="0 0 24 25" fill="none" xmlns="http://www.w3.org/2000/svg">
<path d="M9.5 3.91577C11.2239 3.91577 12.8772 4.59534 14.0962 5.80497C15.3152 7.01461 16 8.65522 16 10.3659C16 11.9636 15.41 13.4322 14.44 14.5635L14.71 14.8314H15.5L20.5 19.793L19 21.2815L14 16.3199V15.5359L13.73 15.268C12.59 16.2306 11.11 16.816 9.5 16.816C7.77609 16.816 6.12279 16.1365 4.90381 14.9268C3.68482 13.7172 3 12.0766 3 10.3659C3 8.65522 3.68482 7.01461 4.90381 5.80497C6.12279 4.59534 7.77609 3.91577 9.5 3.91577ZM9.5 5.90043C7 5.90043 5 7.88508 5 10.3659C5 12.8467 7 14.8314 9.5 14.8314C12 14.8314 14 12.8467 14 10.3659C14 7.88508 12 5.90043 9.5 5.90043Z" fill="#F2F4F7"/>
</svg>
