 <svg width="24" height="24" viewBox="0 0 24 24" fill="none" xmlns="http://www.w3.org/2000/svg">
<path d="M12 10C8.135 10 5 13.134 5 17C5 20.866 8.135 24 12 24C15.865 24 19 20.866 19 17C19 13.134 15.865 10 12 10ZM12 22C9.238 22 7 19.761 7 17C7 14.239 9.238 12 12 12C14.762 12 17 14.239 17 17C17 19.761 14.762 22 12 22ZM13.484 17.685L15 16.228L12.917 15.941L12 14.049L11.083 15.941L9 16.228L10.516 17.685L10.147 19.755L12 18.763L13.854 19.755L13.484 17.685ZM8 0L13.958 8H10L4 0H8ZM14.604 7.194L20 0H16L12.624 4.534L14.604 7.194Z" fill="white"/>
</svg>