<svg width="18" height="17" viewBox="0 0 18 17" fill="none" xmlns="http://www.w3.org/2000/svg">
<g clip-path="url(#clip0_2787_425)">
<path d="M6.59312 0C7.80687 4.39526 8.79098 5.37937 13.1862 6.59312C8.79098 7.80688 7.80687 8.79099 6.59312 13.1862C5.37937 8.79053 4.39526 7.80688 0 6.59312C4.39526 5.37937 5.37937 4.39526 6.59312 0Z" fill="url(#paint0_linear_2787_425)"/>
<path d="M13.3234 9.27594C13.9757 11.6379 14.5046 12.1669 16.8666 12.8191C14.5046 13.4714 13.9757 14.0003 13.3234 16.3623C12.6712 14.0003 12.1422 13.4714 9.78027 12.8191C12.1422 12.1669 12.6712 11.6379 13.3234 9.27594Z" fill="url(#paint1_linear_2787_425)"/>
<path d="M15.2136 0.18335C15.7265 2.0411 16.1427 2.45684 18.0005 2.97021C16.1427 3.48312 15.727 3.89932 15.2136 5.75707C14.7007 3.89932 14.2845 3.48358 12.4268 2.97021C14.2845 2.4573 14.7002 2.0411 15.2136 0.18335Z" fill="url(#paint2_linear_2787_425)"/>
</g>
<defs>
<linearGradient id="paint0_linear_2787_425" x1="12.3616" y1="8.37667" x2="2.59597" y2="5.75703" gradientUnits="userSpaceOnUse">
<stop stop-color="#0087AE"/>
<stop offset="0.875" stop-color="#59C8E6"/>
</linearGradient>
<linearGradient id="paint1_linear_2787_425" x1="16.4234" y1="13.7776" x2="11.1754" y2="12.3698" gradientUnits="userSpaceOnUse">
<stop stop-color="#0087AE"/>
<stop offset="0.875" stop-color="#59C8E6"/>
</linearGradient>
<linearGradient id="paint2_linear_2787_425" x1="17.6519" y1="3.7241" x2="13.5241" y2="2.6168" gradientUnits="userSpaceOnUse">
<stop stop-color="#0087AE"/>
<stop offset="0.875" stop-color="#59C8E6"/>
</linearGradient>
<clipPath id="clip0_2787_425">
<rect width="18" height="16.3623" fill="white"/>
</clipPath>
</defs>
</svg>
