<svg width="24" height="24" viewBox="0 0 24 24" fill="none" xmlns="http://www.w3.org/2000/svg">
<path d="M15.91 13.34L18.546 9.314L18.092 8.908L14.419 12.007C13.744 11.869 13.017 12.075 12.525 12.625C11.789 13.448 11.86 14.713 12.684 15.449C13.508 16.185 14.772 16.114 15.508 15.29C16 14.74 16.123 13.995 15.91 13.34ZM12 2.694V0H16V2.694C14.561 2.451 13.408 2.456 12 2.694ZM20.851 4.758L22.258 3.351L23.672 4.765L22.351 6.086C21.889 5.602 21.387 5.159 20.851 4.758ZM2 9H10V11H2V9ZM0 13H8V15H0V13ZM3 17H10V19H3V17ZM24 14C24 19.523 19.523 24 14 24C11.21 24 8.7 22.845 6.889 21H10.169C11.307 21.631 12.608 22 14 22C18.411 22 22 18.411 22 14C22 9.589 18.411 6 14 6C12.608 6 11.307 6.369 10.169 7H6.889C8.7 5.155 11.21 4 14 4C19.523 4 24 8.477 24 14Z" fill="white"/>
</svg>