<svg width="178" height="46" viewBox="0 0 178 46" fill="none" xmlns="http://www.w3.org/2000/svg">
<path d="M4 9.1999H2.6V1.5999H0V0.399902H6.6V1.5999H4V9.1999Z" fill="white"/>
<path d="M9.80039 2.3999C10.0004 2.3999 10.3004 2.3999 10.5004 2.4999L10.4004 3.7999C10.2004 3.7999 10.0004 3.6999 9.80039 3.6999C9.30039 3.6999 8.80039 3.8999 8.40039 4.2999C8.00039 4.6999 7.80039 5.1999 7.80039 5.6999V9.1999H6.40039V2.4999H7.50039L7.70039 3.6999H7.80039C8.00039 3.2999 8.20039 2.9999 8.60039 2.7999C8.90039 2.4999 9.40039 2.3999 9.80039 2.3999Z" fill="white"/>
<path d="M11.1992 0.8C11.1992 0.6 11.2992 0.4 11.3992 0.2C11.5992 0.1 11.7992 0 11.9992 0C12.1992 0 12.3992 0.1 12.5992 0.2C12.6992 0.4 12.7992 0.6 12.7992 0.8C12.7992 1 12.6992 1.2 12.5992 1.4C12.3992 1.5 12.1992 1.6 11.9992 1.6C11.7992 1.6 11.5992 1.5 11.3992 1.4C11.2992 1.2 11.1992 1 11.1992 0.8ZM12.6992 9.2H11.2992V2.5H12.6992V9.2Z" fill="white"/>
<path d="M16.9998 9.30008C16.0998 9.40008 15.2998 9.00008 14.6998 8.40008C14.0998 7.70008 13.7998 6.80008 13.8998 5.90008C13.7998 5.00008 14.0998 4.10008 14.6998 3.30008C15.2998 2.70008 16.1998 2.30008 17.0998 2.40008C17.6998 2.40008 18.3998 2.50008 18.9998 2.80008L18.5998 3.90008C18.0998 3.70008 17.5998 3.60008 17.0998 3.60008C15.9998 3.60008 15.3998 4.40008 15.3998 5.90008C15.3998 6.50008 15.4998 7.10008 15.7998 7.60008C16.0998 8.00008 16.5998 8.20008 17.0998 8.20008C17.6998 8.20008 18.2998 8.00008 18.8998 7.70008V8.90008C18.5998 9.00008 18.3998 9.10008 18.0998 9.20008C17.6998 9.20008 17.3998 9.30008 16.9998 9.30008Z" fill="white"/>
<path d="M23.0006 9.29993C22.1006 9.29993 21.2006 8.99993 20.6006 8.39993C20.0006 7.69993 19.7006 6.79993 19.7006 5.89993C19.6006 4.99993 19.9006 4.09993 20.5006 3.39993C21.1006 2.79993 21.9006 2.39993 22.7006 2.49993C23.5006 2.49993 24.2006 2.79993 24.8006 3.29993C25.3006 3.89993 25.6006 4.69993 25.5006 5.49993V6.29993H21.1006C21.1006 6.79993 21.3006 7.39993 21.6006 7.79993C22.0006 7.99993 22.5006 8.19993 23.0006 8.19993C23.4006 8.19993 23.7006 8.19993 24.1006 8.09993C24.5006 7.99993 24.8006 7.89993 25.2006 7.69993V8.89993C24.9006 9.09993 24.5006 9.19993 24.2006 9.29993C23.8006 9.29993 23.4006 9.29993 23.0006 9.29993ZM22.7006 3.49993C22.3006 3.49993 21.9006 3.59993 21.6006 3.89993C21.3006 4.19993 21.1006 4.69993 21.1006 5.09993H24.1006C24.1006 4.69993 24.0006 4.19993 23.7006 3.89993C23.5006 3.59993 23.1006 3.49993 22.7006 3.49993Z" fill="white"/>
<path d="M32.6008 9.2H31.2008V5.1C31.2008 4.7 31.1008 4.3 30.9008 4C30.6008 3.7 30.3008 3.6 29.9008 3.6C29.4008 3.6 28.9008 3.8 28.6008 4.1C28.3008 4.6 28.2008 5.2 28.2008 5.9V9.2H26.8008V2.5H27.9008L28.1008 3.4H28.2008C28.4008 3.1 28.7008 2.8 29.1008 2.7C29.5008 2.5 29.9008 2.4 30.3008 2.4C30.9008 2.3 31.5008 2.6 32.0008 3C32.5008 3.5 32.7008 4.2 32.6008 4.8V9.2Z" fill="white"/>
<path d="M36.6008 8.1001C36.9008 8.1001 37.3008 8.0001 37.6008 7.9001V9.0001C37.4008 9.1001 37.2008 9.1001 37.0008 9.2001C36.7008 9.2001 36.5008 9.3001 36.2008 9.3001C34.9008 9.3001 34.2008 8.6001 34.2008 7.2001V3.6001H33.3008V3.0001L34.3008 2.5001L34.8008 1.1001H35.7008V2.6001H37.6008V3.7001H35.7008V7.2001C35.7008 7.5001 35.8008 7.7001 36.0008 8.0001C36.1008 8.1001 36.4008 8.1001 36.6008 8.1001Z" fill="white"/>
<path d="M38.5 0.8C38.5 0.6 38.6 0.4 38.7 0.2C38.9 0.1 39.1 0 39.3 0C39.5 0 39.7 0 39.9 0.2C40.1 0.4 40.1 0.6 40.1 0.8C40.1 1 40 1.2 39.9 1.4C39.7 1.5 39.5 1.6 39.3 1.6C39.1 1.6 38.9 1.5 38.7 1.4C38.6 1.2 38.5 1 38.5 0.8ZM40 9.2H38.6V2.5H40V9.2Z" fill="white"/>
<path d="M46.0992 7.30005C46.0992 7.90005 45.8992 8.40005 45.3992 8.80005C44.7992 9.20005 44.0992 9.40005 43.3992 9.30005C42.6992 9.30005 41.8992 9.20005 41.2992 8.90005V7.70005C41.9992 8.00005 42.6992 8.20005 43.4992 8.20005C44.3992 8.20005 44.7992 7.90005 44.7992 7.40005C44.7992 7.20005 44.7992 7.10005 44.5992 7.00005C44.4992 6.90005 44.2992 6.70005 44.0992 6.60005C43.7992 6.40005 43.4992 6.30005 43.1992 6.20005C42.5992 6.00005 42.0992 5.70005 41.5992 5.30005C41.2992 5.00005 41.1992 4.60005 41.1992 4.20005C41.1992 3.70005 41.3992 3.10005 41.8992 2.80005C42.4992 2.50005 43.0992 2.30005 43.7992 2.30005C44.5992 2.30005 45.2992 2.50005 45.9992 2.80005L45.4992 3.90005C44.8992 3.60005 44.2992 3.50005 43.6992 3.40005C42.8992 3.40005 42.5992 3.60005 42.5992 4.00005C42.5992 4.20005 42.6992 4.40005 42.8992 4.50005C43.2992 4.70005 43.6992 4.90005 44.1992 5.10005C44.5992 5.20005 44.9992 5.40005 45.3992 5.70005C45.5992 5.90005 45.7992 6.10005 45.8992 6.30005C46.0992 6.70005 46.0992 7.00005 46.0992 7.30005Z" fill="white"/>
<path d="M2.69922 38.2999V16.3999H6.29922V35.1999H15.4992V38.2999H2.69922Z" fill="white"/>
<path d="M17.5 17.4C17.5 16.9 17.7 16.3 18 16C18.4 15.6 18.9 15.5 19.5 15.5C20 15.5 20.5 15.7 20.9 16C21.3 16.4 21.5 16.9 21.5 17.4C21.5 17.9 21.3 18.4 21 18.8C20.6 19.2 20.1 19.4 19.6 19.3C19.1 19.3 18.5 19.1 18.1 18.8C17.7 18.4 17.5 17.9 17.5 17.4ZM21.2 38.3H17.7V21.7H21.2V38.3Z" fill="white"/>
<path d="M28.8 38.3L22.5 21.8H26.2L29.6 31.4C30.1 32.7 30.4 34 30.6 35.3H30.7C30.9 34 31.3 32.7 31.7 31.4L35.1 21.8H38.8L32.6 38.3H28.8Z" fill="white"/>
<path d="M47.4008 38.6001C45.2008 38.7001 43.0008 37.9001 41.4008 36.4001C39.9008 34.7001 39.1008 32.5001 39.2008 30.2001C39.1008 27.9001 39.8008 25.6001 41.2008 23.8001C42.6008 22.2001 44.6008 21.4001 46.7008 21.5001C48.6008 21.4001 50.5008 22.1001 51.9008 23.5001C53.2008 25.0001 53.9008 27.0001 53.8008 29.0001V30.9001H42.8008C42.8008 32.3001 43.2008 33.6001 44.1008 34.6001C45.0008 35.5001 46.2008 36.0001 47.5008 35.9001C48.4008 35.9001 49.3008 35.8001 50.2008 35.6001C51.1008 35.4001 52.0008 35.1001 52.9008 34.7001V37.5001C52.1008 37.9001 51.2008 38.2001 50.3008 38.4001C49.4008 38.5001 48.4008 38.6001 47.4008 38.6001ZM46.8008 24.1001C45.8008 24.1001 44.8008 24.4001 44.1008 25.2001C43.4008 26.1001 42.9008 27.2001 42.9008 28.3001H50.4008C50.5008 27.2001 50.1008 26.1001 49.4008 25.2001C48.7008 24.4001 47.7008 24.1001 46.8008 24.1001Z" fill="white"/>
<path d="M66.2994 19.2C64.3994 19.1 62.5994 19.9 61.4994 21.4C60.1994 23.0999 59.5994 25.2999 59.6994 27.4C59.6994 30.0999 60.2994 32.1 61.3994 33.5C62.5994 34.9 64.3994 35.6999 66.2994 35.5999C67.1994 35.5999 68.0994 35.5 68.9994 35.2999C69.8994 35.0999 70.7994 34.8999 71.6994 34.5999V37.7C69.7994 38.4 67.8994 38.7 65.8994 38.7C62.6994 38.7 60.1994 37.6999 58.4994 35.7999C56.7994 33.9 55.8994 31.1 55.8994 27.5C55.7994 25.4 56.2994 23.4 57.0994 21.5C57.8994 19.9 59.0994 18.5 60.6994 17.6C62.3994 16.7 64.2994 16.2 66.1994 16.2C68.2994 16.2 70.4994 16.7 72.3994 17.6L71.0994 20.6C70.2994 20.2 69.5994 19.9 68.7994 19.7C67.9994 19.3 67.1994 19.2 66.2994 19.2Z" fill="white"/>
<path d="M88.1996 30C88.2996 32.3 87.5996 34.6 86.0996 36.3C84.5996 37.9 82.4996 38.7 80.2996 38.6C78.8996 38.6 77.4996 38.3 76.1996 37.6C74.9996 36.9 74.0996 35.9 73.4996 34.6C72.7996 33.2 72.4996 31.6 72.4996 30.1C72.3996 27.8 73.0996 25.6 74.5996 23.8C76.0996 22.2 78.2996 21.3 80.4996 21.5C82.5996 21.4 84.6996 22.2 86.1996 23.8C87.5996 25.5 88.2996 27.7 88.1996 30ZM76.1996 30C76.1996 33.8 77.5996 35.7 80.3996 35.7C83.1996 35.7 84.5996 33.8 84.5996 30C84.5996 26.2 83.1996 24.3 80.3996 24.3C79.0996 24.2 77.8996 24.8 77.1996 25.8C76.4996 27.1 76.0996 28.5 76.1996 30Z" fill="white"/>
<path d="M104.3 38.2999H100.8V28.0999C100.9 27.0999 100.6 26.0999 100.1 25.2999C99.6004 24.5999 98.7004 24.2999 97.9004 24.3999C96.7004 24.2999 95.6004 24.7999 94.9004 25.6999C94.1004 26.9999 93.8004 28.5999 93.9004 30.0999V38.2999H90.4004V21.6999H93.2004L93.7004 23.8999H93.9004C94.4004 23.0999 95.1004 22.4999 95.9004 22.0999C96.8004 21.6999 97.8004 21.4999 98.8004 21.4999C101.3 21.4999 103 22.3999 103.8 24.0999H104C104.5 23.2999 105.2 22.5999 106.1 22.1999C107 21.6999 108.1 21.4999 109.1 21.4999C110.8 21.2999 112.4 21.7999 113.6 22.9999C114.6 24.2999 115.1 25.8999 114.9 27.5999V38.3999H111.4V28.0999C111.5 27.0999 111.2 26.0999 110.7 25.2999C110.1 24.5999 109.3 24.2999 108.5 24.3999C107.4 24.2999 106.2 24.7999 105.5 25.6999C104.8 26.8999 104.4 28.1999 104.5 29.5999V38.2999H104.3Z" fill="white"/>
<path d="M125.599 38.5999C123.699 38.6999 121.899 37.8999 120.699 36.3999H120.499C120.599 37.7999 120.699 38.5999 120.699 38.8999V45.6999H117.199V21.6999H119.999C120.099 21.9999 120.199 22.6999 120.499 23.8999H120.699C121.799 22.1999 123.699 21.2999 125.599 21.3999C127.499 21.2999 129.299 22.1999 130.399 23.5999C131.699 25.4999 132.299 27.6999 132.099 29.8999C132.199 32.0999 131.599 34.3999 130.399 36.1999C129.299 37.7999 127.499 38.6999 125.599 38.5999ZM124.799 24.2999C123.599 24.1999 122.499 24.6999 121.699 25.4999C120.999 26.6999 120.599 27.9999 120.699 29.3999V29.9999C120.599 31.4999 120.899 32.9999 121.599 34.3999C122.299 35.3999 123.499 35.8999 124.699 35.7999C125.799 35.7999 126.899 35.2999 127.499 34.2999C128.199 32.9999 128.599 31.4999 128.499 29.9999C128.599 28.4999 128.199 27.0999 127.499 25.7999C126.999 24.7999 125.899 24.2999 124.799 24.2999Z" fill="white"/>
<path d="M145.501 38.3001L144.801 36.0001H144.701C144.101 36.9001 143.201 37.6001 142.301 38.1001C141.301 38.5001 140.301 38.7001 139.201 38.6001C137.801 38.7001 136.401 38.2001 135.401 37.3001C134.401 36.3001 133.901 35.0001 134.001 33.6001C133.901 32.1001 134.601 30.6001 135.901 29.7001C137.701 28.7001 139.701 28.2001 141.701 28.3001L144.601 28.2001V27.3001C144.701 26.4001 144.401 25.6001 143.901 24.9001C143.301 24.3001 142.401 24.0001 141.601 24.1001C140.801 24.1001 140.001 24.2001 139.201 24.5001C138.401 24.7001 137.701 25.0001 137.001 25.4001L135.801 22.9001C136.701 22.4001 137.701 22.1001 138.701 21.9001C139.701 21.7001 140.701 21.5001 141.701 21.5001C143.401 21.4001 145.101 21.9001 146.501 22.9001C147.701 24.0001 148.201 25.6001 148.101 27.2001V38.3001H145.501ZM140.201 35.8001C141.301 35.9001 142.401 35.5001 143.301 34.8001C144.101 34.0001 144.601 32.9001 144.501 31.8001V30.3001L142.401 30.4001C141.101 30.4001 139.901 30.6001 138.801 31.2001C138.001 31.7001 137.601 32.6001 137.701 33.5001C137.701 34.1001 137.901 34.8001 138.301 35.2001C138.801 35.7001 139.501 35.9001 140.201 35.8001Z" fill="white"/>
<path d="M160 21.3999C160.6 21.3999 161.2 21.3999 161.8 21.4999L161.4 24.6999C160.9 24.5999 160.4 24.4999 159.8 24.4999C158.5 24.4999 157.3 24.9999 156.4 25.8999C155.5 26.8999 155 28.1999 155.1 29.4999V38.0999H151.6V21.6999H154.4L154.9 24.5999H155.1C155.6 23.6999 156.4 22.7999 157.3 22.1999C158 21.7999 159 21.4999 160 21.3999Z" fill="white"/>
<path d="M170.799 38.6001C168.599 38.7001 166.399 37.9001 164.799 36.4001C163.299 34.7001 162.499 32.5001 162.599 30.2001C162.499 27.9001 163.199 25.6001 164.599 23.8001C165.999 22.2001 167.999 21.4001 170.099 21.5001C171.999 21.4001 173.899 22.1001 175.299 23.5001C176.599 25.0001 177.299 27.0001 177.199 29.0001V30.9001H166.199C166.199 32.3001 166.599 33.6001 167.499 34.6001C168.399 35.5001 169.599 36.0001 170.899 35.9001C171.799 35.9001 172.699 35.8001 173.599 35.6001C174.499 35.4001 175.399 35.1001 176.299 34.7001V37.5001C175.499 37.9001 174.599 38.2001 173.699 38.4001C172.799 38.5001 171.799 38.6001 170.799 38.6001ZM170.199 24.1001C169.199 24.1001 168.199 24.4001 167.499 25.2001C166.799 26.1001 166.299 27.2001 166.299 28.3001H173.799C173.899 27.2001 173.499 26.1001 172.799 25.2001C172.099 24.4001 171.199 24.1001 170.199 24.1001Z" fill="white"/>
</svg>
