<svg width="156" height="32" viewBox="0 0 156 32" fill="none" xmlns="http://www.w3.org/2000/svg">
<g clip-path="url(#clip0_635_3994)">
<path d="M53.3629 3.63306H32.9913V7.40941H41.1871V28.2556H45.1672V7.40941H53.3629V3.63306Z" fill="#004C97"/>
<path d="M54.0927 12.159L53.7262 10.0261H50.1923V28.2557H54.1758V16.1914C54.8188 15.3526 55.6656 14.6925 56.6364 14.2748C57.7564 13.7763 58.9696 13.5225 60.1954 13.5316H60.909V9.68579H60.1954C57.762 9.68579 55.7157 10.5166 54.0927 12.159Z" fill="#004C97"/>
<path d="M67.099 3.02075H62.881V7.23871H67.099V3.02075Z" fill="#004C97"/>
<path d="M66.9808 10.0259H63.0007V28.2555H66.9808V10.0259Z" fill="#004C97"/>
<path d="M113.138 9.68579C110.951 9.68579 108.952 10.5348 107.187 12.2102L106.811 10.0261H103.275V28.2557H107.259V16.4077C108.876 14.4307 110.603 13.4303 112.39 13.4303C114.64 13.4303 115.69 14.6083 115.69 17.1372V28.258H119.674V16.7946C119.674 14.7904 119.089 13.0922 117.935 11.7447C116.758 10.3789 115.146 9.68579 113.138 9.68579Z" fill="#004C97"/>
<path d="M127.875 5.67603L120.663 12.7325V13.5656H123.895V23.6655C123.895 26.891 125.765 28.5971 129.302 28.5971C130.439 28.6016 131.56 28.3285 132.567 27.8004L132.805 27.6763V24.4451H132.031L131.945 24.4838C130.431 25.1565 129.126 25.0643 128.39 24.7547C128.049 24.6056 127.875 24.1481 127.875 23.3889V13.5645H132.805V10.026H127.875V5.67603Z" fill="#004C97"/>
<path d="M139.355 3.02075H135.137V7.23871H139.355V3.02075Z" fill="#004C97"/>
<path d="M139.235 10.0259H135.255V28.2555H139.235V10.0259Z" fill="#004C97"/>
<path d="M154.332 19.6896C153.609 18.8439 152.643 18.2418 151.565 17.9641L148.554 17.1743C147.697 16.9603 146.862 16.6621 146.062 16.2865C145.321 15.9269 145.235 15.4898 145.235 15.195C145.235 14.7113 145.506 14.3096 146.062 13.967C146.679 13.5868 147.682 13.3979 149.043 13.3979C150.428 13.3979 151.869 13.7075 153.328 14.3164L153.41 14.3505H154.18V10.7734L153.89 10.6664C152.076 10.0028 150.158 9.67049 148.227 9.68529C146.154 9.68529 144.484 10.2259 143.26 11.2912C142.02 12.3724 141.391 13.7951 141.391 15.5023C141.391 16.7702 141.786 17.8332 142.566 18.6618C143.316 19.4642 144.278 20.0367 145.341 20.3144L148.337 21.1179C149.181 21.3342 150.003 21.6244 150.795 21.9841C151.591 22.3608 151.591 22.7421 151.591 22.8672C151.591 23.7197 151.25 24.8533 148.259 24.8533C146.21 24.8692 144.195 24.3263 142.432 23.2827L142.327 23.2212H141.593V26.8838L141.82 27.0101C143.737 28.0617 145.886 28.5955 148.207 28.5955C150.557 28.5955 152.369 28.0799 153.59 27.0647C154.835 26.029 155.467 24.7395 155.467 23.2315C155.47 21.753 155.087 20.5602 154.332 19.6896Z" fill="#004C97"/>
<path d="M93.1231 9.68579C92.0271 9.68807 90.9413 9.89293 89.9192 10.289C88.8813 10.6874 87.9366 11.2963 87.1444 12.077C86.3034 12.9272 85.6455 13.9413 85.2096 15.0555C84.7247 16.2438 84.4789 17.6471 84.4789 19.228C84.4664 20.4981 84.6587 21.7615 85.048 22.9702C85.7764 25.2533 87.5223 27.0686 89.7758 27.8847C90.9834 28.3536 92.4232 28.5915 94.0564 28.5915C94.6892 28.5915 95.3209 28.5573 95.9503 28.4868C96.5694 28.4173 97.1533 28.3308 97.6837 28.2284C98.1651 28.1396 98.642 28.0258 99.112 27.887C99.4284 27.7948 99.738 27.6798 100.038 27.5455L99.4888 24.2563C98.8412 24.4953 98.1753 24.6831 97.497 24.8151C96.5421 25.0086 95.569 25.1031 94.5947 25.0951C92.7896 25.0951 91.392 24.6865 90.4382 23.8796C89.4845 23.0726 88.9347 21.9163 88.8152 20.4446L88.8084 20.3638H101.202C101.222 20.1544 101.238 19.9154 101.249 19.6536C101.261 19.3532 101.267 19.0994 101.267 18.8763C101.267 15.8329 100.543 13.5134 99.1155 11.9837C97.6882 10.454 95.6726 9.68579 93.1231 9.68579ZM97.0725 17.4252H88.8403L88.8517 17.3409C88.9234 16.8015 89.0577 16.2711 89.25 15.7623C89.4378 15.257 89.7155 14.7904 90.0706 14.3852C90.8491 13.502 91.9804 13.0092 93.1584 13.0422C93.7434 13.0297 94.3227 13.1457 94.8577 13.3836C95.3232 13.5999 95.7352 13.9151 96.0675 14.3055C96.4055 14.7118 96.6605 15.1807 96.8175 15.6849C96.9883 16.2256 97.0748 16.7901 97.0725 17.3569V17.4252Z" fill="#004C97"/>
<path d="M79.4912 9.5603C73.6526 9.5603 69.0852 13.7191 69.0852 19.0296V19.0991C69.0852 24.3516 73.6378 28.4649 79.4582 28.4649C81.5911 28.4649 83.3973 28.0403 84.9782 27.1651L84.9338 27.1253C84.8655 27.0627 84.7961 27.0001 84.7323 26.9318C84.0142 26.1567 83.4337 25.2644 83.0172 24.2936C81.9963 24.8456 80.8513 25.1301 79.6904 25.121C76.1223 25.121 73.4306 22.5033 73.4306 19.0296V18.9602C73.4306 15.5834 76.0791 12.9383 79.4628 12.9383C80.7193 12.9224 81.9564 13.2502 83.0411 13.8852C83.5259 12.7573 84.2122 11.7273 85.0658 10.8453C83.4872 9.978 81.6616 9.5603 79.4912 9.5603Z" fill="#004C97"/>
<path d="M3.96529 25.9097L0 21.9444L5.96159 15.9828L0.0443875 10.0656L4.00967 6.10034L13.8922 15.9828L3.96529 25.9097Z" fill="#004C97"/>
<path d="M10.0547 32.0003L6.09058 28.035L16.0175 18.1082L25.8999 27.9906L21.9347 31.9548L16.0175 26.0387L10.0547 32.0003Z" fill="#004C97"/>
<path d="M15.9833 13.8922L6.10083 4.00967L10.0661 0.0455257L15.9833 5.96273L21.9449 0L25.9102 3.96529L15.9833 13.8922Z" fill="#004C97"/>
</g>
<defs>
<clipPath id="clip0_635_3994">
<rect width="155.467" height="32" fill="white"/>
</clipPath>
</defs>
</svg>
